<?xml version="1.0" standalone="no"?>
<!DOCTYPE svg PUBLIC "-//W3C//DTD SVG 1.1//EN" "http://www.w3.org/Graphics/SVG/1.1/DTD/svg11.dtd" >
<svg xmlns="http://www.w3.org/2000/svg" xmlns:xlink="http://www.w3.org/1999/xlink" version="1.1">
<metadata>
Created by FontForge 20170731 at Thu Oct  7 00:18:31 2010
 By Aleksey,,,
Copyright (c) Mark Simonson, 2005. All rights reserved.
</metadata>
<defs>
<font id="ProximaNovaSExCn-ThinIt" horiz-adv-x="374" >
  <font-face 
    font-family="Proxima Nova ScOsf ExCn Th"
    font-weight="250"
    font-style="italic"
    font-stretch="normal"
    units-per-em="1000"
    panose-1="2 0 5 6 3 0 0 2 0 4"
    ascent="800"
    descent="-200"
    x-height="550"
    cap-height="667"
    bbox="-155 -199 754 872"
    underline-thickness="20"
    underline-position="-173"
    unicode-range="U+000D-FB02"
  />
<missing-glyph horiz-adv-x="495" 
d="M443 -90h-351v842h351v-842zM411 -60v782h-288v-782h288z" />
    <glyph glyph-name="fi" unicode="fi" horiz-adv-x="455" 
d="M43 0h-32l121 550h185l-6 -29h-153l-50 -223h147l-6 -29h-147zM336 0h-32l121 550h32z" />
    <glyph glyph-name="fl" unicode="fl" horiz-adv-x="565" 
d="M43 0h-32l121 550h185l-6 -29h-153l-50 -223h147l-6 -29h-147zM489 0h-185l121 550h32l-115 -521h153z" />
    <glyph glyph-name=".notdef" horiz-adv-x="495" 
d="M443 -90h-351v842h351v-842zM411 -60v782h-288v-782h288z" />
    <glyph glyph-name=".null" horiz-adv-x="0" 
 />
    <glyph glyph-name="nonmarkingreturn" horiz-adv-x="333" 
 />
    <glyph glyph-name="NUL" horiz-adv-x="0" 
 />
    <glyph glyph-name="NUL" horiz-adv-x="0" 
 />
    <glyph glyph-name="CR" unicode="&#xd;" horiz-adv-x="0" 
 />
    <glyph glyph-name="space" unicode=" " horiz-adv-x="180" 
 />
    <glyph glyph-name="exclam" unicode="!" horiz-adv-x="167" 
d="M171 550l-103 -418h-20l81 418h42zM31 -9q-13 0 -21.5 8.5t-8.5 21.5q0 15 10.5 25t25.5 10q13 0 21.5 -8.5t8.5 -21.5q0 -15 -10.5 -25t-25.5 -10z" />
    <glyph glyph-name="quotedbl" unicode="&#x22;" horiz-adv-x="290" 
d="M140 443h-21l30 201q5 33 31 33q10 0 16.5 -7t6.5 -17q0 -5 -4 -17zM256 443h-21l30 201q5 33 31 33q10 0 16.5 -7t6.5 -17q0 -5 -4 -17z" />
    <glyph glyph-name="numbersign" unicode="#" horiz-adv-x="347" 
d="M360 387l-11 -28h-62l-73 -164h61l-13 -29h-63l-74 -166h-33l76 166h-76l-74 -166h-33l75 166h-60l13 29h62l74 164h-61l11 28h62l74 163h33l-75 -163h76l74 163h31l-74 -163h60zM256 359h-76l-74 -164h75z" />
    <glyph glyph-name="dollar" unicode="$" horiz-adv-x="270" 
d="M52 -74l14 63q-57 8 -85 57l27 20q22 -42 64 -48l58 260q-18 27 -26 40t-17 38t-9 50q0 62 33.5 106.5t81.5 48.5l15 67h30l-15 -68q41 -6 65 -42l-25 -21q-18 29 -47 34l-53 -238q17 -25 26 -41.5t18 -45t9 -57.5q0 -59 -35 -106.5t-85 -53.5l-14 -63h-30zM181 149
q0 48 -28 95l-50 -225q33 9 55.5 45.5t22.5 84.5zM112 417q0 -41 29 -90l45 204q-31 -8 -52.5 -40.5t-21.5 -73.5z" />
    <glyph glyph-name="percent" unicode="%" horiz-adv-x="450" 
d="M264 462q0 -64 -36 -117.5t-86 -53.5q-38 0 -59 26t-21 74q0 64 36 117.5t86 53.5q38 0 59 -26t21 -74zM430 550l-363 -550h-32l362 550h33zM233 465q0 72 -49 72q-36 0 -63 -45.5t-27 -103.5q0 -72 49 -72q36 0 63 45.5t27 103.5zM402 159q0 -64 -36 -117.5t-86 -53.5
q-38 0 -59 26t-21 74q0 64 36 117.5t86 53.5q38 0 59 -26t21 -74zM371 162q0 72 -49 72q-36 0 -63 -45.5t-27 -103.5q0 -72 49 -72q36 0 63 45.5t27 103.5z" />
    <glyph glyph-name="ampersand" unicode="&#x26;" horiz-adv-x="300" 
d="M239 0h-36q-11 28 -21 59q-55 -71 -101 -71q-37 0 -58.5 28t-21.5 67q0 70 30 118.5t84 98.5q-6 39 -6 69q0 78 30 135.5t74 57.5q25 0 40.5 -20t15.5 -55q0 -39 -18 -75t-36 -55t-55 -53q-8 -7 -12 -11q6 -36 18 -77q11 -43 27 -90q35 61 64 136l27 -12
q-42 -102 -80 -159q9 -27 35 -91zM82 16q38 0 89 75q-11 34 -29 96q-14 48 -21 81q-87 -87 -87 -185q0 -28 13 -47.5t35 -19.5zM141 369q0 -28 2 -43q31 28 48 47.5t32 50t15 63.5q0 47 -27 47q-26 0 -48 -51t-22 -114z" />
    <glyph glyph-name="quotesingle" unicode="'" horiz-adv-x="176" 
d="M140 443h-21l30 201q5 33 31 33q10 0 16.5 -7t6.5 -17q0 -5 -4 -17z" />
    <glyph glyph-name="parenleft" unicode="(" horiz-adv-x="167" 
d="M53 -194l-19 -5q-17 88 -17 185q0 364 212 699l17 -8q-87 -154 -143.5 -347t-56.5 -373q0 -85 7 -151z" />
    <glyph glyph-name="parenright" unicode=")" horiz-adv-x="167" 
d="M113 680l19 5q17 -88 17 -185q0 -364 -212 -699l-17 8q87 154 143.5 347t56.5 373q0 85 -7 151z" />
    <glyph glyph-name="asterisk" unicode="*" horiz-adv-x="288" 
d="M195 409h-31l33 120l-114 -53l-9 27l118 42l-93 64l20 24l85 -74l20 118h31l-33 -120l114 53l9 -27l-117 -42l92 -64l-20 -24l-85 74z" />
    <glyph glyph-name="plus" unicode="+" 
d="M362 322h-142l-36 -162h-32l36 162h-142l7 30h142l34 156h32l-34 -156h142z" />
    <glyph glyph-name="comma" unicode="," horiz-adv-x="208" 
d="M89 18q0 -36 -27 -73.5t-62 -56.5l-18 20q27 15 47 38t25 46h-6q-10 0 -18 8.5t-8 19.5q0 15 10.5 25.5t24.5 10.5q32 0 32 -38z" />
    <glyph glyph-name="hyphen" unicode="-" horiz-adv-x="230" 
d="M196 227h-170l6 30h170z" />
    <glyph glyph-name="period" unicode="." horiz-adv-x="208" 
d="M52 -9q-13 0 -21.5 8.5t-8.5 21.5q0 15 10.5 25t25.5 10q13 0 21.5 -8.5t8.5 -21.5q0 -15 -10.5 -25t-25.5 -10z" />
    <glyph glyph-name="slash" unicode="/" horiz-adv-x="177" 
d="M-28 -20h-31l303 707h32z" />
    <glyph glyph-name="zero" unicode="0" horiz-adv-x="377" 
d="M348 406q0 -28 -6 -74.5t-22 -107.5t-38 -112.5t-58.5 -87.5t-80.5 -36q-45 0 -73.5 38t-28.5 118q0 28 6 74.5t22 107.5t38 112.5t58.5 87.5t80.5 36q45 0 73.5 -38t28.5 -118zM316 413q0 119 -74 119q-45 0 -80.5 -52.5t-53 -125t-26.5 -130.5t-9 -87q0 -119 74 -119
q45 0 80.5 52.5t53 125t26.5 130.5t9 87z" />
    <glyph glyph-name="one" unicode="1" horiz-adv-x="243" 
d="M117 0h-32l111 504l-130 -115l-17 23l159 138h30z" />
    <glyph glyph-name="two" unicode="2" horiz-adv-x="348" 
d="M231 0h-225l6 29q160 147 223.5 244t63.5 172q0 42 -19 64.5t-51 22.5q-58 0 -106 -90l-29 16q59 104 135 104q51 0 78.5 -30.5t27.5 -85.5q0 -163 -282 -416h184z" />
    <glyph glyph-name="three" unicode="3" horiz-adv-x="347" 
d="M100 -129q-49 0 -80.5 33t-41.5 100l34 10q13 -113 88 -113q55 0 90 67.5t35 148.5q0 48 -23 72t-56 24q-19 0 -26 -1l8 32q7 -1 41 -1q56 0 89 60t33 137q0 90 -71 90q-32 0 -59 -23.5t-44 -60.5l-28 16q20 42 56 70t79 28q48 0 76 -31t28 -89q0 -71 -34.5 -136
t-94.5 -80q60 -25 60 -120q0 -87 -45.5 -160t-113.5 -73z" />
    <glyph glyph-name="four" unicode="4" horiz-adv-x="310" 
d="M261 78h-55l-43 -195h-32l43 195h-199l7 33l286 439h42l-98 -442h55zM180 108l87 391l-255 -391h168z" />
    <glyph glyph-name="five" unicode="5" horiz-adv-x="348" 
d="M102 -129q-54 0 -80 34.5t-33 97.5l35 7q5 -109 80 -109q52 0 94.5 87t42.5 184q0 91 -63 91q-47 0 -99 -60l-22 18l73 329h214l-6 -30h-182l-61 -277q40 50 90 50q41 0 65.5 -33t24.5 -89q0 -112 -52 -206t-121 -94z" />
    <glyph glyph-name="six" unicode="6" horiz-adv-x="350" 
d="M137 -12q-94 0 -94 147q0 36 7 95.5t24.5 138.5t43 146.5t67.5 114.5t92 47q40 0 68.5 -31t31.5 -83l-31 -11q-2 44 -20.5 69.5t-50.5 25.5q-34 0 -63.5 -29.5t-51 -83t-35 -101.5t-26.5 -110q-1 -6 -1.5 -9.5t-1.5 -9.5q53 102 119 102q41 0 67 -31.5t26 -92.5
q0 -60 -18 -125.5t-58.5 -117t-94.5 -51.5zM143 18q32 0 58.5 29t41.5 72.5t23.5 87.5t8.5 79q0 90 -65 90t-125 -130q-12 -64 -12 -113q0 -115 70 -115z" />
    <glyph glyph-name="seven" unicode="7" horiz-adv-x="278" 
d="M34 -117h-35l280 637h-194l6 30h230l-5 -22z" />
    <glyph glyph-name="eight" unicode="8" horiz-adv-x="348" 
d="M133 -12q-113 0 -113 121q0 73 38.5 136.5t111.5 101.5q-25 23 -42.5 62t-17.5 78q0 70 40.5 130t105.5 60q45 0 74.5 -29.5t29.5 -91.5q0 -141 -138 -214q28 -27 45.5 -67.5t17.5 -81.5q0 -88 -45 -146.5t-107 -58.5zM199 359q47 19 86.5 70t39.5 130q0 87 -74 87
q-43 0 -74.5 -49t-31.5 -117q0 -37 16 -71t38 -50zM132 18q45 0 81.5 52.5t36.5 124.5q0 50 -19 87t-38 49q-54 -21 -95.5 -80.5t-41.5 -136.5q0 -49 21.5 -72.5t54.5 -23.5z" />
    <glyph glyph-name="nine" unicode="9" horiz-adv-x="350" 
d="M226 561q94 0 94 -147q0 -36 -7 -95.5t-24.5 -138.5t-43 -146.5t-67.5 -114.5t-92 -47q-40 0 -68.5 31t-31.5 83l31 11q2 -44 20.5 -69.5t50.5 -25.5q34 0 63.5 29.5t51 83t35 101.5t26.5 110q1 6 1.5 10t1.5 9q-53 -102 -119 -102q-41 0 -67 31.5t-26 92.5
q0 60 18 125.5t58.5 117t94.5 51.5zM220 531q-32 0 -58.5 -29t-41.5 -72.5t-23.5 -87.5t-8.5 -79q0 -90 65 -90t125 130q12 64 12 113q0 115 -70 115z" />
    <glyph glyph-name="colon" unicode=":" horiz-adv-x="208" 
d="M52 -9q-13 0 -21.5 8.5t-8.5 21.5q0 15 10.5 25t25.5 10q13 0 21.5 -8.5t8.5 -21.5q0 -15 -10.5 -25t-25.5 -10zM148 425q-13 0 -21.5 8.5t-8.5 21.5q0 15 10.5 25t25.5 10q13 0 21.5 -8.5t8.5 -21.5q0 -15 -10.5 -25t-25.5 -10z" />
    <glyph glyph-name="semicolon" unicode=";" horiz-adv-x="208" 
d="M89 18q0 -36 -27 -73.5t-62 -56.5l-18 20q27 15 47 38t25 46h-6q-10 0 -18 8.5t-8 19.5q0 15 10.5 25.5t24.5 10.5q32 0 32 -38zM148 425q-13 0 -21.5 8.5t-8.5 21.5q0 15 10.5 25t25.5 10q13 0 21.5 -8.5t8.5 -21.5q0 -15 -10.5 -25t-25.5 -10z" />
    <glyph glyph-name="less" unicode="&#x3c;" 
d="M327 166l-281 158l5 21l351 158l-9 -38l-304 -133l245 -132z" />
    <glyph glyph-name="equal" unicode="=" 
d="M383 418h-316l7 30h316zM339 220h-316l7 30h316z" />
    <glyph glyph-name="greater" unicode="&#x3e;" 
d="M362 324l-351 -158l9 38l305 132l-246 133l7 34l281 -158z" />
    <glyph glyph-name="question" unicode="?" horiz-adv-x="261" 
d="M284 466q0 -40 -17 -73.5t-41 -56t-48 -42.5t-41 -43.5t-17 -49.5q0 -19 14 -42l-30 -19q-15 27 -15 55q0 33 16.5 61t40.5 48.5t48 42t40.5 51.5t16.5 66q0 30 -14.5 49.5t-46.5 19.5q-36 0 -69 -28l-16 25q38 32 85 32q42 0 68 -26.5t26 -69.5zM81 -9q-13 0 -21.5 8.5
t-8.5 21.5q0 15 10.5 25t25.5 10q13 0 21.5 -8.5t8.5 -21.5q0 -15 -10.5 -25t-25.5 -10z" />
    <glyph glyph-name="at" unicode="@" horiz-adv-x="569" 
d="M276 -70q-97 0 -159 77.5t-62 208.5q0 106 43 203.5t116 158.5t154 61q85 0 135.5 -65t50.5 -182q0 -129 -42 -218t-90 -89q-31 0 -48 20.5t-17 51.5v6q-47 -78 -103 -78q-36 0 -62 28.5t-26 90.5q0 69 21 136t63 113.5t93 46.5q28 0 46.5 -22t24.5 -56l12 60h30
l-63 -299q-3 -15 -3 -28q0 -24 7 -33.5t23 -9.5q18 0 41.5 29.5t43.5 97.5t20 153q0 105 -43.5 161t-113.5 56q-73 0 -138.5 -57.5t-103.5 -148.5t-38 -187q0 -119 54.5 -188t137.5 -69q68 0 128 57l14 -23q-68 -63 -146 -63zM254 112q24 0 46.5 16.5t34.5 32.5t31 46
l40 183q-15 83 -63 83q-43 0 -77.5 -46t-50.5 -106t-16 -117q0 -92 55 -92z" />
    <glyph glyph-name="A" unicode="A" horiz-adv-x="312" 
d="M246 0h-32l7 179h-158l-71 -179h-34l272 667h38zM223 209l17 411l-165 -411h148z" />
    <glyph glyph-name="B" unicode="B" horiz-adv-x="360" 
d="M128 0h-110l147 667h76q54 0 84.5 -34t30.5 -92q0 -71 -31 -129.5t-86 -72.5q29 -9 43 -42t14 -70q0 -89 -46 -158t-122 -69zM204 358q56 0 87 60.5t31 122.5q0 48 -23 72t-64 24h-44l-62 -279h75zM134 30q55 0 91 60.5t36 136.5q0 101 -91 101h-48l-66 -298h78z" />
    <glyph glyph-name="C" unicode="C" horiz-adv-x="357" 
d="M151 -12q-104 0 -104 170q0 59 14 141.5t40.5 170t74.5 148t106 60.5q87 0 102 -123l-31 -6q-10 99 -76 99q-46 0 -85 -59t-62 -142t-35.5 -162t-12.5 -131q0 -72 17.5 -104t55.5 -32q28 0 51.5 22t50.5 66l26 -16q-61 -102 -132 -102z" />
    <glyph glyph-name="D" unicode="D" horiz-adv-x="386" 
d="M112 0h-94l147 667h91q48 0 81.5 -44.5t33.5 -140.5q0 -31 -6.5 -82.5t-24.5 -123t-45.5 -131.5t-75.5 -102.5t-107 -42.5zM118 30h-1q47 0 86.5 39.5t63 96t40.5 122t23.5 115.5t6.5 79q0 79 -24.5 117t-62.5 38h-59l-135 -607h62z" />
    <glyph glyph-name="E" unicode="E" horiz-adv-x="330" 
d="M228 0h-210l147 667h210l-6 -30h-178l-62 -279h171l-7 -30h-171l-66 -298h178z" />
    <glyph glyph-name="F" unicode="F" horiz-adv-x="330" 
d="M50 0h-32l147 667h210l-6 -30h-178l-62 -279h171l-7 -30h-171z" />
    <glyph glyph-name="G" unicode="G" horiz-adv-x="375" 
d="M151 -12q-104 0 -104 170q0 61 14.5 145t41.5 170t74.5 145.5t104.5 59.5q49 0 73 -36t29 -87l-31 -6q-5 47 -21.5 73t-54.5 26q-44 0 -83 -57t-62.5 -138.5t-36.5 -162t-13 -136.5q0 -74 17.5 -105t55.5 -31q43 0 89 67l45 206h-101l6 30h133l-54 -247q-56 -86 -122 -86
z" />
    <glyph glyph-name="H" unicode="H" horiz-adv-x="395" 
d="M269 0h-32l72 328h-187l-72 -328h-32l147 667h32l-68 -309h187l68 309h32z" />
    <glyph glyph-name="I" unicode="I" horiz-adv-x="176" 
d="M50 0h-32l147 667h32z" />
    <glyph glyph-name="J" unicode="J" horiz-adv-x="298" 
d="M67 -12q-71 0 -102 57l25 20q24 -47 77 -47q41 0 64 24t35 79l121 546h32l-121 -546q-15 -70 -46.5 -101.5t-84.5 -31.5z" />
    <glyph glyph-name="K" unicode="K" horiz-adv-x="372" 
d="M300 0h-36l-96 321l-67 -90l-51 -231h-32l147 667h32l-82 -372l277 372h42l-244 -319z" />
    <glyph glyph-name="L" unicode="L" horiz-adv-x="306" 
d="M228 0h-210l147 667h32l-141 -637h178z" />
    <glyph glyph-name="M" unicode="M" horiz-adv-x="508" 
d="M382 0h-32l135 609l-276 -609h-18l-6 609l-135 -609h-32l147 667h51l7 -557l254 557h52z" />
    <glyph glyph-name="N" unicode="N" horiz-adv-x="395" 
d="M269 0h-32l-59 579l-128 -579h-32l147 667h32l60 -572l127 572h32z" />
    <glyph glyph-name="O" unicode="O" horiz-adv-x="396" 
d="M151 -12q-104 0 -104 170q0 56 14 138.5t40.5 170.5t74.5 149.5t106 61.5q55 0 80 -48t25 -123q0 -56 -14 -138t-41 -170t-75 -149.5t-106 -61.5zM155 18q44 0 83 56t62.5 136.5t37.5 161.5t14 138q0 138 -75 138q-44 0 -82.5 -56.5t-62 -137.5t-37 -161.5t-13.5 -138.5
q0 -136 73 -136z" />
    <glyph glyph-name="P" unicode="P" horiz-adv-x="341" 
d="M50 0h-32l147 667h90q47 0 77 -37t30 -99q0 -93 -49 -167.5t-134 -74.5h-65zM191 637l-71 -318h64q68 0 105.5 65t37.5 147q0 53 -21.5 79.5t-57.5 26.5h-57z" />
    <glyph glyph-name="Q" unicode="Q" horiz-adv-x="396" 
d="M151 -12q-104 0 -104 170q0 56 14 138.5t40.5 170.5t74.5 149.5t106 61.5q55 0 80 -48t25 -123q0 -62 -15 -151.5t-52.5 -188.5t-86.5 -144l8 -53l-30 -5l-6 38q-28 -15 -54 -15zM155 18q25 0 45 16l-26 166l31 5l22 -145q54 67 89.5 209.5t35.5 240.5q0 138 -75 138
q-44 0 -82.5 -56.5t-62 -137.5t-37 -161.5t-13.5 -138.5q0 -136 73 -136z" />
    <glyph glyph-name="R" unicode="R" horiz-adv-x="366" 
d="M259 0h-33l-35 289h-77l-64 -289h-32l147 667h87q50 0 81 -37.5t31 -95.5q0 -90 -41 -157.5t-103 -83.5zM187 319h-2q68 0 105.5 65.5t37.5 149.5q0 51 -20 77t-56 26h-61l-71 -318h67z" />
    <glyph glyph-name="S" unicode="S" horiz-adv-x="319" 
d="M102 -12q-34 0 -65.5 17.5t-48.5 44.5l28 24q12 -25 36 -40.5t50 -15.5q51 0 90 46t39 122q0 41 -20.5 83.5t-44.5 73t-44.5 74t-20.5 87.5q0 73 46 123.5t103 50.5q66 0 98 -47l-24 -24q-27 41 -74 41q-50 0 -83 -42.5t-33 -101.5q0 -35 20 -75.5t44.5 -73t44.5 -78.5
t20 -91q0 -85 -47 -141.5t-114 -56.5z" />
    <glyph glyph-name="T" unicode="T" horiz-adv-x="287" 
d="M105 0h-32l141 637h-109l6 30h251l-6 -30h-110z" />
    <glyph glyph-name="U" unicode="U" horiz-adv-x="396" 
d="M158 -12q-51 0 -81 30.5t-30 87.5q0 26 5 48l113 513h32l-113 -513q-5 -20 -5 -42q0 -46 22.5 -70t59.5 -24q43 0 69 31t42 105l113 513h32l-113 -513q-20 -88 -53.5 -127t-92.5 -39z" />
    <glyph glyph-name="V" unicode="V" horiz-adv-x="312" 
d="M121 0h-38l22 667h32l-26 -620l248 620h34z" />
    <glyph glyph-name="W" unicode="W" horiz-adv-x="490" 
d="M312 0h-38l47 587l-213 -587h-38l47 667h35l-50 -604l219 604h34l-49 -604l218 604h35z" />
    <glyph glyph-name="X" unicode="X" horiz-adv-x="308" 
d="M246 0h-34l-45 300l-175 -300h-38l203 340l-49 327h35l39 -289l165 289h39l-194 -330z" />
    <glyph glyph-name="Y" unicode="Y" horiz-adv-x="322" 
d="M123 0h-32l64 289l-60 378h34l48 -339l200 339h36l-226 -378z" />
    <glyph glyph-name="Z" unicode="Z" horiz-adv-x="309" 
d="M219 0h-237l6 31l329 606h-194l6 30h230l-6 -30l-330 -607h202z" />
    <glyph glyph-name="bracketleft" unicode="[" horiz-adv-x="162" 
d="M48 -190h-110l192 868h111l-7 -30h-81l-179 -808h81z" />
    <glyph glyph-name="backslash" unicode="\" horiz-adv-x="177" 
d="M89 -20v707h30v-707h-30z" />
    <glyph glyph-name="bracketright" unicode="]" horiz-adv-x="162" 
d="M31 -190h-110l7 30h80l179 808h-81l7 30h111z" />
    <glyph glyph-name="asciicircum" unicode="^" horiz-adv-x="324" 
d="M324 333h-30l-44 303l-178 -303h-34l204 334h26z" />
    <glyph glyph-name="underscore" unicode="_" horiz-adv-x="279" 
d="M212 -70h-284l7 30h284z" />
    <glyph glyph-name="grave" unicode="`" horiz-adv-x="119" 
d="M188 556h-24l-63 144h41z" />
    <glyph glyph-name="a" unicode="a" horiz-adv-x="266" 
d="M182 550h36l-16 -550h-32l6 146h-128l-58 -146h-34zM177 175l13 324l-131 -324h118z" />
    <glyph glyph-name="b" unicode="b" horiz-adv-x="299" 
d="M99 0h-88l121 550h53q49 0 79 -26.5t30 -77.5q0 -55 -24.5 -102.5t-70.5 -62.5q44 -23 44 -90q0 -74 -38.5 -132.5t-105.5 -58.5zM49 29h56q47 0 75.5 50t28.5 112q0 37 -17.5 57.5t-48.5 20.5h-41zM162 298q43 0 70 47.5t27 100.5q0 75 -80 75h-21l-51 -223h55z" />
    <glyph glyph-name="c" unicode="c" horiz-adv-x="322" 
d="M136 -12q-102 0 -102 152q0 46 11.5 112t34 138t64.5 122t93 50q37 0 62.5 -25t31.5 -66l-31 -9q-11 71 -63 71q-40 0 -74 -46.5t-54 -112.5t-31 -129t-11 -105q0 -123 69 -123q28 0 47 17.5t40 57.5l27 -14q-26 -46 -52 -68t-62 -22z" />
    <glyph glyph-name="d" unicode="d" horiz-adv-x="352" 
d="M109 0h-98l121 550h58q65 0 101 -36.5t36 -124.5q0 -57 -13.5 -122t-38.5 -126t-68.5 -101t-97.5 -40zM115 29q41 0 76 38.5t56.5 95.5t33.5 117.5t12 108.5q0 72 -27 102t-82 30h-26l-109 -492h66z" />
    <glyph glyph-name="e" unicode="e" horiz-adv-x="293" 
d="M196 0h-185l121 550h185l-6 -29h-153l-50 -223h147l-6 -29h-147l-53 -240h153z" />
    <glyph glyph-name="f" unicode="f" horiz-adv-x="293" 
d="M43 0h-32l121 550h185l-6 -29h-153l-50 -223h147l-6 -29h-147z" />
    <glyph glyph-name="g" unicode="g" horiz-adv-x="340" 
d="M138 -12q-104 0 -104 149q0 53 12.5 122t36 138.5t64 117t88.5 47.5q41 0 64 -25.5t31 -65.5l-30 -9q-14 71 -65 71q-50 0 -90.5 -77.5t-59 -166.5t-18.5 -152q0 -65 17.5 -92.5t53.5 -27.5q46 0 72 36l41 186h-82l7 29h113l-51 -229q-45 -51 -100 -51z" />
    <glyph glyph-name="h" unicode="h" horiz-adv-x="350" 
d="M231 0h-32l59 269h-156l-59 -269h-32l121 550h32l-56 -252h156l56 252h32z" />
    <glyph glyph-name="i" unicode="i" horiz-adv-x="162" 
d="M43 0h-32l121 550h32z" />
    <glyph glyph-name="j" unicode="j" horiz-adv-x="261" 
d="M54 -12q-69 0 -95 52l27 18q18 -41 66 -41q32 0 50.5 19t28.5 63l100 451h32l-100 -451q-24 -111 -109 -111z" />
    <glyph glyph-name="k" unicode="k" horiz-adv-x="329" 
d="M260 0h-38l-83 260l-54 -70l-42 -190h-32l121 550h32l-66 -301l232 301h40l-209 -263z" />
    <glyph glyph-name="l" unicode="l" horiz-adv-x="272" 
d="M196 0h-185l121 550h32l-115 -521h153z" />
    <glyph glyph-name="m" unicode="m" horiz-adv-x="447" 
d="M328 0h-31l108 491l-225 -491h-20l-9 491l-108 -491h-32l121 550h48l9 -458l211 458h49z" />
    <glyph glyph-name="n" unicode="n" horiz-adv-x="350" 
d="M231 0h-38l-45 474l-105 -474h-32l121 550h38l47 -468l103 468h32z" />
    <glyph glyph-name="o" unicode="o" horiz-adv-x="359" 
d="M134 -12q-48 0 -74 37.5t-26 110.5q0 39 10.5 103t32 140t64 129.5t96.5 53.5q48 0 74 -37.5t26 -110.5q0 -39 -10.5 -103t-32 -140t-64 -129.5t-96.5 -53.5zM134 17q43 0 78 52t53.5 123.5t28 131t9.5 90.5q0 62 -16 90.5t-50 28.5q-43 0 -78 -52t-53.5 -123.5
t-28.5 -131.5t-10 -90q0 -119 67 -119z" />
    <glyph glyph-name="p" unicode="p" horiz-adv-x="287" 
d="M43 0h-32l121 550h61q48 0 76.5 -29.5t28.5 -85.5q0 -74 -40 -137t-110 -63h-53zM153 264q50 0 80.5 54.5t30.5 116.5q0 86 -78 86h-28l-57 -257h52z" />
    <glyph glyph-name="q" unicode="q" horiz-adv-x="359" 
d="M134 -12q-48 0 -74 37.5t-26 110.5q0 39 10.5 103t32 140t64 129.5t96.5 53.5q48 0 74 -37.5t26 -110.5q0 -79 -32.5 -208t-94.5 -186l7 -46l-30 -6l-5 32q-26 -12 -48 -12zM134 17q24 0 43 15l-18 124l30 6l15 -103q46 59 72.5 177t26.5 178q0 62 -16 90.5t-50 28.5
q-43 0 -78 -52t-53.5 -123.5t-28.5 -131.5t-10 -90q0 -119 67 -119z" />
    <glyph glyph-name="r" unicode="r" horiz-adv-x="306" 
d="M213 0h-36l-31 235h-51l-52 -235h-32l121 550h71q43 0 69.5 -32t26.5 -84q0 -70 -35.5 -127.5t-87.5 -69.5zM140 264h14q51 0 81 56t30 114q0 42 -19.5 64.5t-49.5 22.5h-38l-57 -257h39z" />
    <glyph glyph-name="s" unicode="s" horiz-adv-x="270" 
d="M84 -12q-68 0 -103 58l27 20q26 -49 76 -49q39 0 68 38.5t29 93.5q0 37 -16 72.5t-35.5 58.5t-35.5 57t-16 69q0 65 36.5 110.5t87.5 45.5q57 0 86 -44l-25 -21q-22 36 -61 36q-35 0 -62.5 -35t-27.5 -81q0 -33 16 -66.5t36 -58t36 -63t16 -80.5q0 -62 -39 -111.5
t-93 -49.5z" />
    <glyph glyph-name="t" unicode="t" horiz-adv-x="239" 
d="M81 0h-32l115 521h-88l6 29h209l-6 -29h-89z" />
    <glyph glyph-name="u" unicode="u" horiz-adv-x="351" 
d="M136 -12q-53 0 -76.5 24t-23.5 70q0 24 9 74l87 394h32l-92 -416q-5 -25 -5 -42q0 -75 69 -75q37 0 58.5 30t36.5 97l90 406h32l-87 -391q-20 -88 -47 -129.5t-83 -41.5z" />
    <glyph glyph-name="v" unicode="v" horiz-adv-x="266" 
d="M97 0h-36l16 550h32l-20 -499l200 499h34z" />
    <glyph glyph-name="w" unicode="w" horiz-adv-x="428" 
d="M272 0h-36l29 475l-181 -475h-36l29 550h34l-31 -483l185 483h32l-29 -483l183 483h34z" />
    <glyph glyph-name="x" unicode="x" horiz-adv-x="270" 
d="M210 0h-35l-40 243l-146 -243h-37l172 279l-45 271h35l36 -234l137 234h38l-164 -270z" />
    <glyph glyph-name="y" unicode="y" horiz-adv-x="284" 
d="M104 0h-32l52 238l-55 312h34l45 -274l166 274h35l-193 -312z" />
    <glyph glyph-name="z" unicode="z" horiz-adv-x="266" 
d="M183 0h-208l6 28l277 493h-168l6 29h202l-6 -28l-277 -493h174z" />
    <glyph glyph-name="braceleft" unicode="{" horiz-adv-x="187" 
d="M73 -190h-28q-27 0 -46 19t-19 51q0 12 4 28l55 249q3 15 3 21q0 51 -39 51l7 30q52 0 68 72l56 254q21 93 100 93h32l-7 -30h-32q-49 0 -63 -63l-57 -258q-14 -68 -64 -87q29 -15 29 -53q0 -18 -4 -34l-55 -250q-2 -12 -2 -16q0 -22 11 -34.5t26 -12.5h32z" />
    <glyph glyph-name="bar" unicode="|" horiz-adv-x="174" 
d="M122 -20h-30v707h30v-707z" />
    <glyph glyph-name="braceright" unicode="}" horiz-adv-x="187" 
d="M113 678h28q27 0 46 -19t19 -53q0 -10 -4 -26l-55 -249q-3 -15 -3 -22q0 -50 39 -50l-7 -30q-52 0 -68 -72l-56 -254q-21 -93 -100 -93h-32l7 30h32q49 0 63 63l57 258q14 68 64 87q-29 15 -29 53q0 18 4 34l55 250q2 12 2 16q0 22 -11 34.5t-26 12.5h-32z" />
    <glyph glyph-name="asciitilde" unicode="~" horiz-adv-x="376" 
d="M411 667l30 -3q-57 -231 -143 -231q-35 0 -47.5 31.5t-9.5 69.5t-3 69.5t-29 31.5q-33 0 -58.5 -50t-51.5 -154l-29 5q56 229 142 229q35 0 47.5 -31.5t9.5 -70t3 -70t29 -31.5q33 0 58.5 50t51.5 155z" />
    <glyph glyph-name="uni00A0" unicode="&#xa0;" horiz-adv-x="180" 
 />
    <glyph glyph-name="exclamdown" unicode="&#xa1;" horiz-adv-x="167" 
d="M-4 0l103 418h20l-81 -418h-42zM136 559q13 0 21.5 -8.5t8.5 -21.5q0 -15 -10.5 -25t-25.5 -10q-13 0 -21.5 8.5t-8.5 21.5q0 15 10.5 25t25.5 10z" />
    <glyph glyph-name="cent" unicode="&#xa2;" horiz-adv-x="322" 
d="M88 -100l20 91q-74 18 -74 149q0 45 11.5 111t33.5 137.5t63.5 122t92.5 51.5l12 53h30l-13 -57q56 -17 67 -87l-31 -9q-9 53 -42 67l-114 -512q24 3 42 20.5t37 54.5l27 -14q-26 -46 -52 -67.5t-61 -22.5l-19 -88h-30zM67 140q0 -104 48 -120l113 512q-38 -5 -70 -53
t-51 -112.5t-29.5 -125.5t-10.5 -101z" />
    <glyph glyph-name="sterling" unicode="&#xa3;" horiz-adv-x="284" 
d="M18 223l7 30h63q-16 75 -16 106q0 86 38 144t98 58q35 0 60.5 -23.5t28.5 -59.5l-28 -9q-4 31 -21 48t-44 17q-46 0 -73.5 -47t-27.5 -118q0 -26 2.5 -45.5t7.5 -40.5t7 -30h74l-7 -30h-63q0 -3 0.5 -11t0.5 -12q0 -93 -80 -161q13 9 28 9q19 0 41.5 -13.5t34.5 -13.5
q29 0 54 31l19 -22q-36 -39 -77 -39q-24 0 -49.5 15t-39.5 15q-23 0 -59 -28l-11 27q42 25 75.5 73t33.5 101q0 9 -2 29h-75z" />
    <glyph glyph-name="yen" unicode="&#xa5;" horiz-adv-x="284" 
d="M104 0h-32l26 118h-111l6 30h111l20 89h-111l7 30h99l-50 283h34l45 -274l166 274h35l-175 -283h100l-7 -30h-111l-20 -89h111l-6 -30h-111z" />
    <glyph glyph-name="brokenbar" unicode="&#xa6;" horiz-adv-x="174" 
d="M122 -20h-30v316h30v-316zM122 371h-30v316h30v-316z" />
    <glyph glyph-name="section" unicode="&#xa7;" horiz-adv-x="278" 
d="M258 314q0 -107 -100 -138q45 -49 45 -106q0 -61 -34.5 -106t-89.5 -45q-76 0 -110 61l26 19q25 -53 84 -53q38 0 65.5 34.5t27.5 83.5q0 32 -18.5 61.5t-40 49t-40 52.5t-18.5 70q0 51 30.5 87t84.5 41q-60 55 -60 120q0 57 35 94.5t80 37.5q68 0 98 -53l-25 -18
q-22 44 -74 44q-34 0 -58.5 -30t-24.5 -71q0 -32 18.5 -62.5t40 -50.5t40 -53t18.5 -69zM228 310q0 48 -40 95q-56 -5 -79.5 -35t-23.5 -70q0 -55 56 -106q87 30 87 116z" />
    <glyph glyph-name="dieresis" unicode="&#xa8;" horiz-adv-x="252" 
d="M293 601q0 -13 -9 -22t-22 -9q-10 0 -17.5 7t-7.5 18q0 13 9 22t22 9q10 0 17.5 -7t7.5 -18zM171 601q0 -13 -9 -22t-22 -9q-10 0 -17.5 7t-7.5 18q0 13 9 22t22 9q10 0 17.5 -7t7.5 -18z" />
    <glyph glyph-name="copyright" unicode="&#xa9;" horiz-adv-x="778" 
d="M754 334q0 -142 -101.5 -243.5t-244.5 -101.5q-142 0 -243 101t-101 244t101 244t243 101q143 0 244.5 -101.5t101.5 -243.5zM728 334q0 131 -94.5 225t-225.5 94t-224.5 -94t-93.5 -225t93.5 -225t224.5 -94t225.5 94t94.5 225zM504 193l15 -23q-61 -51 -131 -51
q-89 0 -140.5 54t-51.5 134q0 101 72.5 172t164.5 71q106 0 153 -80l-24 -17q-37 70 -129 70q-79 0 -143.5 -63t-64.5 -153q0 -67 46 -114t117 -47q69 0 116 47z" />
    <glyph glyph-name="ordfeminine" unicode="&#xaa;" horiz-adv-x="273" 
d="M211 624q-29 0 -53 -36.5t-36 -82.5t-12 -85q0 -78 47 -78q19 0 39 19.5t33 46.5l34 155q-2 24 -17 42.5t-35 18.5zM280 640h28l-69 -314h-28l10 47q-32 -55 -73 -55q-66 0 -66 102q0 47 13.5 98t43.5 90.5t69 39.5q20 0 38 -15t24 -39z" />
    <glyph glyph-name="guillemotleft" unicode="&#xab;" horiz-adv-x="273" 
d="M110 63h-31l-50 180l130 177h35l-133 -181zM200 63h-31l-50 180l130 177h35l-133 -181z" />
    <glyph glyph-name="logicalnot" unicode="&#xac;" 
d="M390 448l-51 -228h-32l44 198h-284l7 30h316z" />
    <glyph glyph-name="registered" unicode="&#xae;" horiz-adv-x="494" 
d="M508 465q0 -88 -62.5 -150t-150.5 -62t-149.5 62t-61.5 150t62 150t150 62t150 -61.5t62 -150.5zM482 465q0 78 -54.5 132t-132.5 54q-77 0 -131 -54t-54 -132q0 -77 54 -131.5t131 -54.5t132 54.5t55 131.5zM365 343h-35l-42 96h-49l-21 -96h-29l53 243h90q29 0 49 -17
t20 -47q0 -34 -24.5 -58t-55.5 -24zM370 518q0 19 -12 30t-29 11h-64l-20 -92h70q23 0 39 15t16 36z" />
    <glyph glyph-name="macron" unicode="&#xaf;" horiz-adv-x="240" 
d="M316 591h-239l6 27h239z" />
    <glyph glyph-name="degree" unicode="&#xb0;" horiz-adv-x="273" 
d="M318 566q0 -46 -32.5 -78t-78.5 -32t-78 32t-32 78t32 78.5t78 32.5t78.5 -32.5t32.5 -78.5zM288 566q0 33 -24 57t-57 24t-56.5 -24t-23.5 -57t23 -56.5t56 -23.5t57.5 23.5t24.5 56.5z" />
    <glyph glyph-name="plusminus" unicode="&#xb1;" 
d="M362 322h-142l-36 -162h-32l36 162h-142l7 30h142l34 156h32l-34 -156h142zM304 60h-316l6 30h316z" />
    <glyph glyph-name="twosuperior" unicode="&#xb2;" horiz-adv-x="240" 
d="M250 421h-177l5 24q132 151 171 204.5t39 95.5q0 27 -14.5 41.5t-36.5 14.5q-41 0 -75 -52l-21 18q44 60 96 60q34 0 58 -21.5t24 -60.5q0 -46 -40.5 -101t-166.5 -197h143z" />
    <glyph glyph-name="threesuperior" unicode="&#xb3;" horiz-adv-x="240" 
d="M278 545q0 -46 -29 -88.5t-80 -42.5q-35 0 -58.5 19.5t-30.5 51.5l26 13q5 -26 22 -42t41 -16q38 0 58.5 36.5t20.5 79.5q0 29 -14.5 44t-35.5 15q-20 0 -25 -1l6 27q5 -1 28 -1q32 0 56 28.5t24 74.5q0 26 -13.5 42t-37.5 16q-39 0 -75 -51l-20 17q40 60 97 60
q38 0 58.5 -21.5t20.5 -62.5q0 -38 -22.5 -74t-60.5 -44q44 -15 44 -80z" />
    <glyph glyph-name="acute" unicode="&#xb4;" horiz-adv-x="119" 
d="M220 700l-127 -144h-26l110 144h43z" />
    <glyph glyph-name="mu" unicode="&#xb5;" horiz-adv-x="342" 
d="M0 -184h-30l148 667h30l-88 -394q-16 -76 36 -76q31 0 64 27.5t56 66.5l84 376h30l-107 -483h-30l14 66q-54 -78 -120 -78q-32 0 -46 13z" />
    <glyph glyph-name="paragraph" unicode="&#xb6;" horiz-adv-x="449" 
d="M280 -100h-30l164 737h-98l-164 -737h-30l94 423q-57 0 -97 44.5t-40 111.5q0 73 56.5 130.5t137.5 57.5h177z" />
    <glyph glyph-name="periodcentered" unicode="&#xb7;" horiz-adv-x="208" 
d="M101 212q-13 0 -21.5 8.5t-8.5 21.5q0 15 10.5 25t25.5 10q13 0 21.5 -8.5t8.5 -21.5q0 -15 -10.5 -25t-25.5 -10z" />
    <glyph glyph-name="cedilla" unicode="&#xb8;" horiz-adv-x="151" 
d="M-17 -187q-45 0 -72 35l19 24q20 -32 56 -32q24 0 40.5 17.5t16.5 41.5q0 30 -28 30q-16 0 -31 -15l-18 12l50 85h30l-43 -70q10 10 24 10q21 0 33.5 -15t12.5 -37q0 -35 -27 -60.5t-63 -25.5z" />
    <glyph glyph-name="onesuperior" unicode="&#xb9;" horiz-adv-x="190" 
d="M169 421h-30l78 356l-72 -64l-17 20l102 88h27z" />
    <glyph glyph-name="ordmasculine" unicode="&#xba;" horiz-adv-x="272" 
d="M163 318q-80 0 -80 104q0 29 7.5 65.5t22.5 73.5t41.5 62t59.5 25q80 0 80 -104q0 -29 -7.5 -65.5t-22.5 -73.5t-41.5 -62t-59.5 -25zM163 344q33 0 57.5 39.5t34.5 83.5t10 77q0 77 -52 77q-33 0 -57.5 -39t-34 -82.5t-9.5 -77.5q0 -78 51 -78z" />
    <glyph glyph-name="guillemotright" unicode="&#xbb;" horiz-adv-x="273" 
d="M73 420h31l50 -180l-130 -177h-35l133 181zM163 420h31l50 -180l-130 -177h-35l133 181z" />
    <glyph glyph-name="onequarter" unicode="&#xbc;" horiz-adv-x="514" 
d="M498 667l-417 -667h-32l416 667h33zM467 113h-38l-25 -113h-29l25 113h-135l6 27l184 260h37l-58 -261h38zM405 139l49 218l-156 -218h107zM135 267h-30l78 356l-72 -64l-17 20l102 88h27z" />
    <glyph glyph-name="onehalf" unicode="&#xbd;" horiz-adv-x="544" 
d="M498 667l-417 -667h-32l416 667h33zM461 0h-177l5 24q132 151 171 204.5t39 95.5q0 27 -14.5 41.5t-36.5 14.5q-41 0 -75 -52l-21 18q44 60 96 60q34 0 58 -21.5t24 -60.5q0 -46 -40.5 -101t-166.5 -197h143zM135 267h-30l78 356l-72 -64l-17 20l102 88h27z" />
    <glyph glyph-name="threequarters" unicode="&#xbe;" horiz-adv-x="550" 
d="M534 667l-417 -667h-32l416 667h33zM503 113h-38l-25 -113h-29l25 113h-135l6 27l184 260h37l-58 -261h38zM441 139l49 218l-156 -218h107zM244 391q0 -46 -29 -88.5t-80 -42.5q-35 0 -58.5 19.5t-30.5 51.5l26 13q5 -26 22 -42t41 -16q38 0 58.5 36.5t20.5 79.5
q0 29 -14.5 44t-35.5 15q-20 0 -25 -1l6 27q5 -1 28 -1q32 0 56 28.5t24 74.5q0 26 -13.5 42t-37.5 16q-39 0 -75 -51l-20 17q40 60 97 60q38 0 58.5 -21.5t20.5 -62.5q0 -38 -22.5 -74t-60.5 -44q44 -15 44 -80z" />
    <glyph glyph-name="questiondown" unicode="&#xbf;" horiz-adv-x="261" 
d="M-23 84q0 40 17 73.5t41 56t48 42.5t41 43.5t17 49.5q0 19 -14 42l30 19q15 -27 15 -55q0 -33 -16.5 -61t-40.5 -48.5t-48 -42t-40.5 -51.5t-16.5 -66q0 -30 14.5 -49.5t46.5 -19.5q36 0 69 28l16 -25q-38 -32 -85 -32q-42 0 -68 26.5t-26 69.5zM180 559q13 0 21.5 -8.5
t8.5 -21.5q0 -15 -10.5 -25t-25.5 -10q-13 0 -21.5 8.5t-8.5 21.5q0 15 10.5 25t25.5 10z" />
    <glyph glyph-name="Agrave" unicode="&#xc0;" horiz-adv-x="312" 
d="M303 728h-24l-63 144h41zM246 0h-32l7 179h-158l-71 -179h-34l272 667h38zM223 209l17 411l-165 -411h148z" />
    <glyph glyph-name="Aacute" unicode="&#xc1;" horiz-adv-x="312" 
d="M375 872l-127 -144h-26l110 144h43zM246 0h-32l7 179h-158l-71 -179h-34l272 667h38zM223 209l17 411l-165 -411h148z" />
    <glyph glyph-name="Acircumflex" unicode="&#xc2;" horiz-adv-x="312" 
d="M351 728h-21l-41 116l-88 -116h-25l100 144h36zM246 0h-32l7 179h-158l-71 -179h-34l272 667h38zM223 209l17 411l-165 -411h148z" />
    <glyph glyph-name="Atilde" unicode="&#xc3;" horiz-adv-x="312" 
d="M294 726q-21 0 -29.5 17.5t-7.5 39t-3.5 39t-18.5 17.5q-35 0 -58 -107h-23q14 63 34 98.5t54 35.5q21 0 29.5 -17.5t7.5 -39t3.5 -39t18.5 -17.5q35 0 59 107h23q-30 -134 -89 -134zM246 0h-32l7 179h-158l-71 -179h-34l272 667h38zM223 209l17 411l-165 -411h148z" />
    <glyph glyph-name="Adieresis" unicode="&#xc4;" horiz-adv-x="312" 
d="M360 767q0 -13 -9 -22t-22 -9q-11 0 -18 7t-7 18q0 13 9 22t22 9q11 0 18 -7t7 -18zM238 767q0 -13 -9 -22t-22 -9q-11 0 -18 7t-7 18q0 13 9 22t22 9q11 0 18 -7t7 -18zM246 0h-32l7 179h-158l-71 -179h-34l272 667h38zM223 209l17 411l-165 -411h148z" />
    <glyph glyph-name="Aring" unicode="&#xc5;" horiz-adv-x="312" 
d="M264 691q-30 0 -49.5 20.5t-19.5 51.5q0 34 26 60t60 26q30 0 49.5 -20.5t19.5 -51.5q0 -35 -26 -60.5t-60 -25.5zM265 715q25 0 43 18t18 43q0 21 -13 35t-33 14q-25 0 -43 -18t-18 -43q0 -21 13 -35t33 -14zM246 0h-32l7 179h-158l-71 -179h-34l272 667h38zM223 209
l17 411l-165 -411h148z" />
    <glyph glyph-name="AE" unicode="&#xc6;" horiz-adv-x="509" 
d="M402 0h-210l39 179h-134l-94 -179h-35l358 667h223l-6 -30h-178l-62 -279h171l-7 -30h-171l-66 -298h178zM238 209l90 406l-215 -406h125z" />
    <glyph glyph-name="Ccedilla" unicode="&#xc7;" horiz-adv-x="357" 
d="M106 -187q-45 0 -72 35l19 24q20 -32 56 -32q24 0 40.5 17.5t16.5 41.5q0 30 -28 30q-16 0 -31 -15l-18 12l38 65q-80 20 -80 167q0 59 14 141.5t40.5 170t74.5 148t106 60.5q87 0 102 -123l-31 -6q-10 99 -76 99q-46 0 -85 -59t-62 -142t-35.5 -162t-12.5 -131
q0 -72 17.5 -104t55.5 -32q28 0 51.5 22t50.5 66l26 -16q-59 -99 -128 -102l-29 -47q10 10 24 10q21 0 33.5 -15t12.5 -37q0 -35 -27 -60.5t-63 -25.5z" />
    <glyph glyph-name="Egrave" unicode="&#xc8;" horiz-adv-x="330" 
d="M328 728h-24l-63 144h41zM228 0h-210l147 667h210l-6 -30h-178l-62 -279h171l-7 -30h-171l-66 -298h178z" />
    <glyph glyph-name="Eacute" unicode="&#xc9;" horiz-adv-x="330" 
d="M397 872l-127 -144h-26l110 144h43zM228 0h-210l147 667h210l-6 -30h-178l-62 -279h171l-7 -30h-171l-66 -298h178z" />
    <glyph glyph-name="Ecircumflex" unicode="&#xca;" horiz-adv-x="330" 
d="M375 728h-21l-41 116l-88 -116h-25l100 144h36zM228 0h-210l147 667h210l-6 -30h-178l-62 -279h171l-7 -30h-171l-66 -298h178z" />
    <glyph glyph-name="Edieresis" unicode="&#xcb;" horiz-adv-x="330" 
d="M382 767q0 -13 -9 -22t-22 -9q-11 0 -18 7t-7 18q0 13 9 22t22 9q11 0 18 -7t7 -18zM260 767q0 -13 -9 -22t-22 -9q-11 0 -18 7t-7 18q0 13 9 22t22 9q11 0 18 -7t7 -18zM228 0h-210l147 667h210l-6 -30h-178l-62 -279h171l-7 -30h-171l-66 -298h178z" />
    <glyph glyph-name="Igrave" unicode="&#xcc;" horiz-adv-x="176" 
d="M236 728h-24l-63 144h41zM50 0h-32l147 667h32z" />
    <glyph glyph-name="Iacute" unicode="&#xcd;" horiz-adv-x="176" 
d="M308 872l-127 -144h-26l110 144h43zM50 0h-32l147 667h32z" />
    <glyph glyph-name="Icircumflex" unicode="&#xce;" horiz-adv-x="176" 
d="M284 728h-21l-41 116l-88 -116h-25l100 144h36zM50 0h-32l147 667h32z" />
    <glyph glyph-name="Idieresis" unicode="&#xcf;" horiz-adv-x="176" 
d="M295 767q0 -13 -9 -22t-22 -9q-10 0 -17.5 7t-7.5 18q0 13 9 22t22 9q10 0 17.5 -7t7.5 -18zM173 767q0 -13 -9 -22t-22 -9q-10 0 -17.5 7t-7.5 18q0 13 9 22t22 9q10 0 17.5 -7t7.5 -18zM50 0h-32l147 667h32z" />
    <glyph glyph-name="Eth" unicode="&#xd0;" horiz-adv-x="402" 
d="M128 0h-94l70 319h-62l7 30h62l70 318h91q48 0 81.5 -44.5t33.5 -140.5q0 -31 -6.5 -82.5t-24.5 -123t-45.5 -131.5t-75.5 -102.5t-107 -42.5zM233 319h-97l-64 -289h61q47 0 86.5 39.5t63 96t40.5 122t23.5 115.5t6.5 79q0 79 -24.5 117t-62.5 38h-59l-64 -288h97z" />
    <glyph glyph-name="Ntilde" unicode="&#xd1;" horiz-adv-x="395" 
d="M341 726q-21 0 -29.5 17.5t-7.5 39t-3.5 39t-18.5 17.5q-35 0 -58 -107h-23q14 63 34 98.5t54 35.5q21 0 29.5 -17.5t7.5 -39t3.5 -39t18.5 -17.5q35 0 59 107h23q-30 -134 -89 -134zM269 0h-32l-59 579l-128 -579h-32l147 667h32l60 -572l127 572h32z" />
    <glyph glyph-name="Ograve" unicode="&#xd2;" horiz-adv-x="396" 
d="M344 728h-24l-63 144h41zM151 -12q-104 0 -104 170q0 56 14 138.5t40.5 170.5t74.5 149.5t106 61.5q55 0 80 -48t25 -123q0 -56 -14 -138t-41 -170t-75 -149.5t-106 -61.5zM155 18q44 0 83 56t62.5 136.5t37.5 161.5t14 138q0 138 -75 138q-44 0 -82.5 -56.5t-62 -137.5
t-37 -161.5t-13.5 -138.5q0 -136 73 -136z" />
    <glyph glyph-name="Oacute" unicode="&#xd3;" horiz-adv-x="396" 
d="M417 872l-127 -144h-26l110 144h43zM151 -12q-104 0 -104 170q0 56 14 138.5t40.5 170.5t74.5 149.5t106 61.5q55 0 80 -48t25 -123q0 -56 -14 -138t-41 -170t-75 -149.5t-106 -61.5zM155 18q44 0 83 56t62.5 136.5t37.5 161.5t14 138q0 138 -75 138q-44 0 -82.5 -56.5
t-62 -137.5t-37 -161.5t-13.5 -138.5q0 -136 73 -136z" />
    <glyph glyph-name="Ocircumflex" unicode="&#xd4;" horiz-adv-x="396" 
d="M393 728h-21l-41 116l-88 -116h-25l100 144h36zM151 -12q-104 0 -104 170q0 56 14 138.5t40.5 170.5t74.5 149.5t106 61.5q55 0 80 -48t25 -123q0 -56 -14 -138t-41 -170t-75 -149.5t-106 -61.5zM155 18q44 0 83 56t62.5 136.5t37.5 161.5t14 138q0 138 -75 138
q-44 0 -82.5 -56.5t-62 -137.5t-37 -161.5t-13.5 -138.5q0 -136 73 -136z" />
    <glyph glyph-name="Otilde" unicode="&#xd5;" horiz-adv-x="396" 
d="M346 726q-21 0 -29.5 17.5t-7.5 39t-3.5 39t-18.5 17.5q-35 0 -58 -107h-23q14 63 34 98.5t54 35.5q21 0 29.5 -17.5t7.5 -39t3.5 -39t18.5 -17.5q35 0 59 107h23q-30 -134 -89 -134zM151 -12q-104 0 -104 170q0 56 14 138.5t40.5 170.5t74.5 149.5t106 61.5q55 0 80 -48
t25 -123q0 -56 -14 -138t-41 -170t-75 -149.5t-106 -61.5zM155 18q44 0 83 56t62.5 136.5t37.5 161.5t14 138q0 138 -75 138q-44 0 -82.5 -56.5t-62 -137.5t-37 -161.5t-13.5 -138.5q0 -136 73 -136z" />
    <glyph glyph-name="Odieresis" unicode="&#xd6;" horiz-adv-x="396" 
d="M401 767q0 -13 -9 -22t-22 -9q-10 0 -17.5 7t-7.5 18q0 13 9 22t22 9q10 0 17.5 -7t7.5 -18zM279 767q0 -13 -9 -22t-22 -9q-10 0 -17.5 7t-7.5 18q0 13 9 22t22 9q10 0 17.5 -7t7.5 -18zM151 -12q-104 0 -104 170q0 56 14 138.5t40.5 170.5t74.5 149.5t106 61.5
q55 0 80 -48t25 -123q0 -56 -14 -138t-41 -170t-75 -149.5t-106 -61.5zM155 18q44 0 83 56t62.5 136.5t37.5 161.5t14 138q0 138 -75 138q-44 0 -82.5 -56.5t-62 -137.5t-37 -161.5t-13.5 -138.5q0 -136 73 -136z" />
    <glyph glyph-name="multiply" unicode="&#xd7;" 
d="M290 201l-86 112l-138 -114l-19 24l139 113l-88 111l25 20l86 -112l138 114l19 -24l-138 -113l87 -111z" />
    <glyph glyph-name="Oslash" unicode="&#xd8;" horiz-adv-x="396" 
d="M151 -12q-58 0 -84 56l-26 -44h-33l46 80q-7 34 -7 78q0 56 14 138.5t40.5 170.5t74.5 149.5t106 61.5t85 -58l27 47h33l-48 -84q8 -37 8 -76q0 -56 -14 -138t-41 -170t-75 -149.5t-106 -61.5zM82 154v-25l263 453q-16 66 -68 66q-44 0 -82.5 -56.5t-62 -137.5
t-37 -161.5t-13.5 -138.5zM155 18q44 0 83 56t62.5 136.5t37.5 161.5t14 138q0 17 -1 26l-263 -454q16 -64 67 -64z" />
    <glyph glyph-name="Ugrave" unicode="&#xd9;" horiz-adv-x="396" 
d="M344 728h-24l-63 144h41zM158 -12q-51 0 -81 30.5t-30 87.5q0 26 5 48l113 513h32l-113 -513q-5 -20 -5 -42q0 -46 22.5 -70t59.5 -24q43 0 69 31t42 105l113 513h32l-113 -513q-20 -88 -53.5 -127t-92.5 -39z" />
    <glyph glyph-name="Uacute" unicode="&#xda;" horiz-adv-x="396" 
d="M416 872l-127 -144h-26l110 144h43zM158 -12q-51 0 -81 30.5t-30 87.5q0 26 5 48l113 513h32l-113 -513q-5 -20 -5 -42q0 -46 22.5 -70t59.5 -24q43 0 69 31t42 105l113 513h32l-113 -513q-20 -88 -53.5 -127t-92.5 -39z" />
    <glyph glyph-name="Ucircumflex" unicode="&#xdb;" horiz-adv-x="396" 
d="M392 728h-21l-41 116l-88 -116h-25l100 144h36zM158 -12q-51 0 -81 30.5t-30 87.5q0 26 5 48l113 513h32l-113 -513q-5 -20 -5 -42q0 -46 22.5 -70t59.5 -24q43 0 69 31t42 105l113 513h32l-113 -513q-20 -88 -53.5 -127t-92.5 -39z" />
    <glyph glyph-name="Udieresis" unicode="&#xdc;" horiz-adv-x="396" 
d="M401 767q0 -13 -9 -22t-22 -9q-10 0 -17.5 7t-7.5 18q0 13 9 22t22 9q10 0 17.5 -7t7.5 -18zM279 767q0 -13 -9 -22t-22 -9q-10 0 -17.5 7t-7.5 18q0 13 9 22t22 9q10 0 17.5 -7t7.5 -18zM158 -12q-51 0 -81 30.5t-30 87.5q0 26 5 48l113 513h32l-113 -513q-5 -20 -5 -42
q0 -46 22.5 -70t59.5 -24q43 0 69 31t42 105l113 513h32l-113 -513q-20 -88 -53.5 -127t-92.5 -39z" />
    <glyph glyph-name="Yacute" unicode="&#xdd;" horiz-adv-x="322" 
d="M384 872l-127 -144h-26l110 144h43zM123 0h-32l64 289l-60 378h34l48 -339l200 339h36l-226 -378z" />
    <glyph glyph-name="Thorn" unicode="&#xde;" horiz-adv-x="341" 
d="M50 0h-32l147 667h32l-28 -129h57q49 0 78 -37.5t29 -98.5q0 -39 -10.5 -79.5t-31.5 -78t-57.5 -61t-83.5 -23.5h-65zM155 190q68 0 105.5 65t37.5 147q0 49 -20.5 77.5t-58.5 28.5h-57l-70 -318h63z" />
    <glyph glyph-name="germandbls" unicode="&#xdf;" horiz-adv-x="540" 
d="M84 -12q-68 0 -103 58l27 20q26 -49 76 -49q39 0 68 38.5t29 93.5q0 37 -16 72.5t-35.5 58.5t-35.5 57t-16 69q0 65 36.5 110.5t87.5 45.5q57 0 86 -44l-25 -21q-22 36 -61 36q-35 0 -62.5 -35t-27.5 -81q0 -33 16 -66.5t36 -58t36 -63t16 -80.5q0 -62 -39 -111.5
t-93 -49.5zM354 -12q-68 0 -103 58l27 20q26 -49 76 -49q39 0 68 38.5t29 93.5q0 37 -16 72.5t-35.5 58.5t-35.5 57t-16 69q0 65 36.5 110.5t87.5 45.5q57 0 86 -44l-25 -21q-22 36 -61 36q-35 0 -62.5 -35t-27.5 -81q0 -33 16 -66.5t36 -58t36 -63t16 -80.5
q0 -62 -39 -111.5t-93 -49.5z" />
    <glyph glyph-name="agrave" unicode="&#xe0;" horiz-adv-x="266" 
d="M182 550h36l-16 -550h-32l6 146h-128l-58 -146h-34zM177 175l13 324l-131 -324h118zM253 606h-24l-63 144h41z" />
    <glyph glyph-name="aacute" unicode="&#xe1;" horiz-adv-x="266" 
d="M182 550h36l-16 -550h-32l6 146h-128l-58 -146h-34zM177 175l13 324l-131 -324h118zM324 750l-127 -144h-26l110 144h43z" />
    <glyph glyph-name="acircumflex" unicode="&#xe2;" horiz-adv-x="266" 
d="M182 550h36l-16 -550h-32l6 146h-128l-58 -146h-34zM177 175l13 324l-131 -324h118zM301 606h-21l-41 116l-88 -116h-25l100 144h36z" />
    <glyph glyph-name="atilde" unicode="&#xe3;" horiz-adv-x="266" 
d="M182 550h36l-16 -550h-32l6 146h-128l-58 -146h-34zM177 175l13 324l-131 -324h118zM253 604q-21 0 -29.5 17.5t-7.5 39t-3.5 39t-18.5 17.5q-35 0 -58 -107h-23q14 63 34 98.5t54 35.5q21 0 29.5 -17.5t7.5 -39t3.5 -39t18.5 -17.5q35 0 59 107h23q-30 -134 -89 -134z
" />
    <glyph glyph-name="adieresis" unicode="&#xe4;" horiz-adv-x="266" 
d="M182 550h36l-16 -550h-32l6 146h-128l-58 -146h-34zM177 175l13 324l-131 -324h118zM310 651q0 -13 -9 -22t-22 -9q-11 0 -18 7t-7 18q0 13 9 22t22 9q11 0 18 -7t7 -18zM188 651q0 -13 -9 -22t-22 -9q-11 0 -18 7t-7 18q0 13 9 22t22 9q11 0 18 -7t7 -18z" />
    <glyph glyph-name="aring" unicode="&#xe5;" horiz-adv-x="266" 
d="M182 550h36l-16 -550h-32l6 146h-128l-58 -146h-34zM177 175l13 324l-131 -324h118zM222 609q-30 0 -49.5 20.5t-19.5 51.5q0 34 26 60t60 26q30 0 49.5 -20.5t19.5 -51.5q0 -35 -26 -60.5t-60 -25.5zM223 633q25 0 43 18t18 43q0 21 -13 35t-33 14q-25 0 -43 -18
t-18 -43q0 -21 13 -35t33 -14z" />
    <glyph glyph-name="ae" unicode="&#xe6;" horiz-adv-x="424" 
d="M327 0h-184l32 146h-114l-79 -146h-34l303 550h197l-6 -29h-152l-50 -223h146l-6 -29h-146l-53 -240h152zM181 175l73 326l-178 -326h105z" />
    <glyph glyph-name="ccedilla" unicode="&#xe7;" horiz-adv-x="322" 
d="M82 -187q-45 0 -72 35l19 24q20 -32 56 -32q24 0 40.5 17.5t16.5 41.5q0 30 -28 30q-16 0 -31 -15l-18 12l39 67q-70 19 -70 147q0 46 11.5 112t34 138t64.5 122t93 50q37 0 62.5 -25t31.5 -66l-31 -9q-11 71 -63 71q-40 0 -74 -46.5t-54 -112.5t-31 -129t-11 -105
q0 -123 69 -123q28 0 47 17.5t40 57.5l27 -14q-26 -46 -52 -68t-62 -22h-5l-29 -47q10 10 24 10q21 0 33.5 -15t12.5 -37q0 -35 -27 -60.5t-63 -25.5z" />
    <glyph glyph-name="egrave" unicode="&#xe8;" horiz-adv-x="293" 
d="M196 0h-185l121 550h185l-6 -29h-153l-50 -223h147l-6 -29h-147l-53 -240h153zM280 606h-24l-63 144h41z" />
    <glyph glyph-name="eacute" unicode="&#xe9;" horiz-adv-x="293" 
d="M196 0h-185l121 550h185l-6 -29h-153l-50 -223h147l-6 -29h-147l-53 -240h153zM351 750l-127 -144h-26l110 144h43z" />
    <glyph glyph-name="ecircumflex" unicode="&#xea;" horiz-adv-x="293" 
d="M196 0h-185l121 550h185l-6 -29h-153l-50 -223h147l-6 -29h-147l-53 -240h153zM325 606h-21l-41 116l-88 -116h-25l100 144h36z" />
    <glyph glyph-name="edieresis" unicode="&#xeb;" horiz-adv-x="293" 
d="M196 0h-185l121 550h185l-6 -29h-153l-50 -223h147l-6 -29h-147l-53 -240h153zM338 651q0 -13 -9 -22t-22 -9q-11 0 -18 7t-7 18q0 13 9 22t22 9q11 0 18 -7t7 -18zM216 651q0 -13 -9 -22t-22 -9q-11 0 -18 7t-7 18q0 13 9 22t22 9q11 0 18 -7t7 -18z" />
    <glyph glyph-name="igrave" unicode="&#xec;" horiz-adv-x="162" 
d="M43 0h-32l121 550h32zM202 606h-24l-63 144h41z" />
    <glyph glyph-name="iacute" unicode="&#xed;" horiz-adv-x="162" 
d="M43 0h-32l121 550h32zM273 750l-127 -144h-26l110 144h43z" />
    <glyph glyph-name="icircumflex" unicode="&#xee;" horiz-adv-x="162" 
d="M43 0h-32l121 550h32zM249 606h-21l-41 116l-88 -116h-25l100 144h36z" />
    <glyph glyph-name="idieresis" unicode="&#xef;" horiz-adv-x="162" 
d="M43 0h-32l121 550h32zM260 651q0 -13 -9 -22t-22 -9q-11 0 -18 7t-7 18q0 13 9 22t22 9q11 0 18 -7t7 -18zM138 651q0 -13 -9 -22t-22 -9q-11 0 -18 7t-7 18q0 13 9 22t22 9q11 0 18 -7t7 -18z" />
    <glyph glyph-name="eth" unicode="&#xf0;" horiz-adv-x="388" 
d="M138 0h-98l59 268h-68l6 27h68l56 255h58q65 0 101 -36.5t36 -124.5q0 -57 -13.5 -122t-38.5 -126t-68.5 -101t-97.5 -40zM144 29q41 0 76 38.5t56.5 95.5t33.5 117.5t12 108.5q0 72 -27 102t-82 30h-26l-50 -226h79l-6 -27h-79l-53 -239h66z" />
    <glyph glyph-name="ntilde" unicode="&#xf1;" horiz-adv-x="350" 
d="M231 0h-38l-45 474l-105 -474h-32l121 550h38l47 -468l103 468h32zM293 604q-21 0 -29.5 17.5t-7.5 39t-3.5 39t-18.5 17.5q-35 0 -58 -107h-23q14 63 34 98.5t54 35.5q21 0 29.5 -17.5t7.5 -39t3.5 -39t18.5 -17.5q35 0 59 107h23q-30 -134 -89 -134z" />
    <glyph glyph-name="ograve" unicode="&#xf2;" horiz-adv-x="359" 
d="M134 -12q-48 0 -74 37.5t-26 110.5q0 39 10.5 103t32 140t64 129.5t96.5 53.5q48 0 74 -37.5t26 -110.5q0 -39 -10.5 -103t-32 -140t-64 -129.5t-96.5 -53.5zM134 17q43 0 78 52t53.5 123.5t28 131t9.5 90.5q0 62 -16 90.5t-50 28.5q-43 0 -78 -52t-53.5 -123.5
t-28.5 -131.5t-10 -90q0 -119 67 -119zM298 606h-24l-63 144h41z" />
    <glyph glyph-name="oacute" unicode="&#xf3;" horiz-adv-x="359" 
d="M134 -12q-48 0 -74 37.5t-26 110.5q0 39 10.5 103t32 140t64 129.5t96.5 53.5q48 0 74 -37.5t26 -110.5q0 -39 -10.5 -103t-32 -140t-64 -129.5t-96.5 -53.5zM134 17q43 0 78 52t53.5 123.5t28 131t9.5 90.5q0 62 -16 90.5t-50 28.5q-43 0 -78 -52t-53.5 -123.5
t-28.5 -131.5t-10 -90q0 -119 67 -119zM371 750l-127 -144h-26l110 144h43z" />
    <glyph glyph-name="ocircumflex" unicode="&#xf4;" horiz-adv-x="359" 
d="M134 -12q-48 0 -74 37.5t-26 110.5q0 39 10.5 103t32 140t64 129.5t96.5 53.5q48 0 74 -37.5t26 -110.5q0 -39 -10.5 -103t-32 -140t-64 -129.5t-96.5 -53.5zM134 17q43 0 78 52t53.5 123.5t28 131t9.5 90.5q0 62 -16 90.5t-50 28.5q-43 0 -78 -52t-53.5 -123.5
t-28.5 -131.5t-10 -90q0 -119 67 -119zM347 606h-21l-41 116l-88 -116h-25l100 144h36z" />
    <glyph glyph-name="otilde" unicode="&#xf5;" horiz-adv-x="359" 
d="M134 -12q-48 0 -74 37.5t-26 110.5q0 39 10.5 103t32 140t64 129.5t96.5 53.5q48 0 74 -37.5t26 -110.5q0 -39 -10.5 -103t-32 -140t-64 -129.5t-96.5 -53.5zM134 17q43 0 78 52t53.5 123.5t28 131t9.5 90.5q0 62 -16 90.5t-50 28.5q-43 0 -78 -52t-53.5 -123.5
t-28.5 -131.5t-10 -90q0 -119 67 -119zM298 604q-21 0 -29.5 17.5t-7.5 39t-3.5 39t-18.5 17.5q-35 0 -58 -107h-23q14 63 34 98.5t54 35.5q21 0 29.5 -17.5t7.5 -39t3.5 -39t18.5 -17.5q35 0 59 107h23q-30 -134 -89 -134z" />
    <glyph glyph-name="odieresis" unicode="&#xf6;" horiz-adv-x="359" 
d="M134 -12q-48 0 -74 37.5t-26 110.5q0 39 10.5 103t32 140t64 129.5t96.5 53.5q48 0 74 -37.5t26 -110.5q0 -39 -10.5 -103t-32 -140t-64 -129.5t-96.5 -53.5zM134 17q43 0 78 52t53.5 123.5t28 131t9.5 90.5q0 62 -16 90.5t-50 28.5q-43 0 -78 -52t-53.5 -123.5
t-28.5 -131.5t-10 -90q0 -119 67 -119zM356 651q0 -13 -9 -22t-22 -9q-11 0 -18 7t-7 18q0 13 9 22t22 9q11 0 18 -7t7 -18zM234 651q0 -13 -9 -22t-22 -9q-11 0 -18 7t-7 18q0 13 9 22t22 9q11 0 18 -7t7 -18z" />
    <glyph glyph-name="divide" unicode="&#xf7;" 
d="M362 322h-316l7 30h316zM174 161q-13 0 -21.5 8.5t-8.5 21.5q0 15 10.5 25t25.5 10q13 0 21.5 -8.5t8.5 -21.5q0 -15 -10.5 -25t-25.5 -10zM237 443q-13 0 -21.5 8.5t-8.5 21.5q0 15 10.5 25t25.5 10q13 0 21.5 -8.5t8.5 -21.5q0 -15 -10.5 -25t-25.5 -10z" />
    <glyph glyph-name="oslash" unicode="&#xf8;" horiz-adv-x="359" 
d="M134 -12q-54 0 -79 46l-21 -34h-35l42 68q-7 27 -7 68q0 39 10.5 103t32 140t64 129.5t96.5 53.5q55 0 80 -48l22 36h35l-44 -71q7 -33 7 -65q0 -39 -10.5 -103t-32 -140t-64 -129.5t-96.5 -53.5zM67 136v-25l229 369q-14 53 -59 53q-43 0 -78 -52t-53.5 -123.5
t-28.5 -131.5t-10 -90zM134 17q43 0 78 52t53.5 123.5t28 131t9.5 90.5q0 14 -1 20l-227 -368q14 -49 59 -49z" />
    <glyph glyph-name="ugrave" unicode="&#xf9;" horiz-adv-x="351" 
d="M136 -12q-53 0 -76.5 24t-23.5 70q0 24 9 74l87 394h32l-92 -416q-5 -25 -5 -42q0 -75 69 -75q37 0 58.5 30t36.5 97l90 406h32l-87 -391q-20 -88 -47 -129.5t-83 -41.5zM295 606h-24l-63 144h41z" />
    <glyph glyph-name="uacute" unicode="&#xfa;" horiz-adv-x="351" 
d="M136 -12q-53 0 -76.5 24t-23.5 70q0 24 9 74l87 394h32l-92 -416q-5 -25 -5 -42q0 -75 69 -75q37 0 58.5 30t36.5 97l90 406h32l-87 -391q-20 -88 -47 -129.5t-83 -41.5zM368 750l-127 -144h-26l110 144h43z" />
    <glyph glyph-name="ucircumflex" unicode="&#xfb;" horiz-adv-x="351" 
d="M136 -12q-53 0 -76.5 24t-23.5 70q0 24 9 74l87 394h32l-92 -416q-5 -25 -5 -42q0 -75 69 -75q37 0 58.5 30t36.5 97l90 406h32l-87 -391q-20 -88 -47 -129.5t-83 -41.5zM343 606h-21l-41 116l-88 -116h-25l100 144h36z" />
    <glyph glyph-name="udieresis" unicode="&#xfc;" horiz-adv-x="351" 
d="M136 -12q-53 0 -76.5 24t-23.5 70q0 24 9 74l87 394h32l-92 -416q-5 -25 -5 -42q0 -75 69 -75q37 0 58.5 30t36.5 97l90 406h32l-87 -391q-20 -88 -47 -129.5t-83 -41.5zM353 651q0 -13 -9 -22t-22 -9q-10 0 -17.5 7t-7.5 18q0 13 9 22t22 9q10 0 17.5 -7t7.5 -18z
M231 651q0 -13 -9 -22t-22 -9q-10 0 -17.5 7t-7.5 18q0 13 9 22t22 9q10 0 17.5 -7t7.5 -18z" />
    <glyph glyph-name="yacute" unicode="&#xfd;" horiz-adv-x="284" 
d="M104 0h-32l52 238l-55 312h34l45 -274l166 274h35l-193 -312zM334 750l-127 -144h-26l110 144h43z" />
    <glyph glyph-name="thorn" unicode="&#xfe;" horiz-adv-x="287" 
d="M43 0h-32l121 550h32l-22 -102h28q48 0 76.5 -29.5t28.5 -85.5q0 -74 -40 -137t-110 -63h-53zM110 162h20q50 0 80.5 54.5t30.5 116.5q0 86 -78 86h-28l-57 -257h32z" />
    <glyph glyph-name="ydieresis" unicode="&#xff;" horiz-adv-x="284" 
d="M104 0h-32l52 238l-55 312h34l45 -274l166 274h35l-193 -312zM320 651q0 -13 -9 -22t-22 -9q-11 0 -18 7t-7 18q0 13 9 22t22 9q11 0 18 -7t7 -18zM198 651q0 -13 -9 -22t-22 -9q-11 0 -18 7t-7 18q0 13 9 22t22 9q11 0 18 -7t7 -18z" />
    <glyph glyph-name="dotlessi" unicode="&#x131;" horiz-adv-x="162" 
d="M43 0h-32l121 550h32z" />
    <glyph glyph-name="Lslash" unicode="&#x141;" horiz-adv-x="322" 
d="M32 272l7 34l70 36l72 325h32l-68 -307l71 37l-8 -34l-71 -37l-65 -296h178l-6 -30h-210l68 308z" />
    <glyph glyph-name="lslash" unicode="&#x142;" horiz-adv-x="296" 
d="M20 217l7 34l71 37l58 262h32l-54 -244l69 36l-7 -34l-70 -36l-53 -243h153l-6 -29h-185l56 253z" />
    <glyph glyph-name="OE" unicode="&#x152;" horiz-adv-x="561" 
d="M454 0h-210l17 80q-54 -92 -120 -92q-47 0 -70.5 46t-23.5 124q0 57 14.5 139t41.5 170t77 149t112 61q68 0 82 -90l17 80h210l-6 -30h-178l-62 -279h171l-7 -30h-171l-66 -298h178zM281 167l73 333q0 75 -16 111t-53 36q-47 0 -87.5 -56t-64.5 -136.5t-37.5 -161
t-13.5 -139.5q0 -136 65 -136q37 0 71.5 40t62.5 109z" />
    <glyph glyph-name="oe" unicode="&#x153;" horiz-adv-x="495" 
d="M398 0h-185l12 54q-36 -66 -91 -66q-49 0 -74.5 38.5t-25.5 109.5q0 46 11.5 112.5t33.5 139.5t64 123.5t94 50.5q32 0 54 -21.5t27 -64.5l16 74h185l-6 -29h-153l-50 -223h147l-6 -29h-147l-53 -240h153zM244 143l59 265q0 125 -66 125q-41 0 -75.5 -49.5t-54 -118
t-30 -130.5t-10.5 -99q0 -60 15.5 -89.5t51.5 -29.5q35 0 60.5 32t49.5 94z" />
    <glyph glyph-name="Scaron" unicode="&#x160;" horiz-adv-x="304" 
d="M296 728h-36l-39 144h21l40 -116l89 116h25zM102 -12q-34 0 -65.5 17.5t-48.5 44.5l28 24q12 -25 36 -40.5t50 -15.5q51 0 90 46t39 122q0 41 -20.5 83.5t-44.5 73t-44.5 74t-20.5 87.5q0 73 46 123.5t103 50.5q66 0 98 -47l-24 -24q-27 41 -74 41q-50 0 -83 -42.5
t-33 -101.5q0 -35 20 -75.5t44.5 -73t44.5 -78.5t20 -91q0 -85 -47 -141.5t-114 -56.5z" />
    <glyph glyph-name="scaron" unicode="&#x161;" horiz-adv-x="270" 
d="M84 -12q-68 0 -103 58l27 20q26 -49 76 -49q39 0 68 38.5t29 93.5q0 37 -16 72.5t-35.5 58.5t-35.5 57t-16 69q0 65 36.5 110.5t87.5 45.5q57 0 86 -44l-25 -21q-22 36 -61 36q-35 0 -62.5 -35t-27.5 -81q0 -33 16 -66.5t36 -58t36 -63t16 -80.5q0 -62 -39 -111.5
t-93 -49.5zM237 606h-36l-39 144h21l40 -116l89 116h25z" />
    <glyph glyph-name="Ydieresis" unicode="&#x178;" horiz-adv-x="322" 
d="M369 767q0 -13 -9 -22t-22 -9q-10 0 -17.5 7t-7.5 18q0 13 9 22t22 9q10 0 17.5 -7t7.5 -18zM247 767q0 -13 -9 -22t-22 -9q-10 0 -17.5 7t-7.5 18q0 13 9 22t22 9q10 0 17.5 -7t7.5 -18zM123 0h-32l64 289l-60 378h34l48 -339l200 339h36l-226 -378z" />
    <glyph glyph-name="Zcaron" unicode="&#x17d;" horiz-adv-x="309" 
d="M282 728h-36l-39 144h21l40 -116l89 116h25zM219 0h-237l6 31l329 606h-194l6 30h230l-6 -30l-330 -607h202z" />
    <glyph glyph-name="zcaron" unicode="&#x17e;" horiz-adv-x="266" 
d="M183 0h-208l6 28l277 493h-168l6 29h202l-6 -28l-277 -493h174zM230 606h-36l-39 144h21l40 -116l89 116h25z" />
    <glyph glyph-name="florin" unicode="&#x192;" horiz-adv-x="283" 
d="M8 -119h-32l75 342h-40v30h47l45 204q13 57 33 80.5t57 23.5q30 0 46 -26l-23 -19q-8 15 -27 15q-20 0 -31.5 -16t-21.5 -58l-45 -204h79v-30h-86z" />
    <glyph glyph-name="circumflex" unicode="&#x2c6;" horiz-adv-x="175" 
d="M244 556h-21l-41 116l-88 -116h-25l100 144h36z" />
    <glyph glyph-name="caron" unicode="&#x2c7;" horiz-adv-x="175" 
d="M176 556h-36l-39 144h21l40 -116l89 116h25z" />
    <glyph glyph-name="breve" unicode="&#x2d8;" horiz-adv-x="230" 
d="M315 627q-55 -58 -128 -58t-102 58l23 18q10 -22 33 -35.5t50 -13.5t56 13.5t47 35.5z" />
    <glyph glyph-name="dotaccent" unicode="&#x2d9;" horiz-adv-x="58" 
d="M141 623q0 -13 -9.5 -22.5t-22.5 -9.5q-11 0 -18.5 7.5t-7.5 18.5q0 13 9.5 22.5t22.5 9.5q11 0 18.5 -7.5t7.5 -18.5z" />
    <glyph glyph-name="ring" unicode="&#x2da;" horiz-adv-x="155" 
d="M156 559q-30 0 -49.5 20.5t-19.5 51.5q0 34 26 60t60 26q30 0 49.5 -20.5t19.5 -51.5q0 -35 -26 -60.5t-60 -25.5zM157 583q25 0 43 18t18 43q0 21 -13 35t-33 14q-25 0 -43 -18t-18 -43q0 -21 13 -35t33 -14z" />
    <glyph glyph-name="ogonek" unicode="&#x2db;" horiz-adv-x="124" 
d="M18 -122l22 -15q-24 -49 -68 -49q-53 0 -53 53q0 85 108 150l20 -17q-100 -59 -100 -130q0 -29 29 -29q30 0 42 37z" />
    <glyph glyph-name="tilde" unicode="&#x2dc;" horiz-adv-x="201" 
d="M210 554q-21 0 -29.5 17.5t-7.5 39t-3.5 39t-18.5 17.5q-35 0 -58 -107h-23q14 63 34 98.5t54 35.5q21 0 29.5 -17.5t7.5 -39t3.5 -39t18.5 -17.5q35 0 59 107h23q-30 -134 -89 -134z" />
    <glyph glyph-name="hungarumlaut" unicode="&#x2dd;" horiz-adv-x="201" 
d="M196 700l-107 -144h-22l90 144h39zM302 700l-107 -144h-22l90 144h39z" />
    <glyph glyph-name="pi" unicode="&#x3c0;" horiz-adv-x="279" 
d="M166 0h-32l104 471h-98l-104 -471h-32l104 471h-40l6 29h243l-6 -29h-41z" />
    <glyph glyph-name="endash" unicode="&#x2013;" horiz-adv-x="460" 
d="M426 227h-400l6 30h400z" />
    <glyph glyph-name="emdash" unicode="&#x2014;" horiz-adv-x="640" 
d="M606 227h-580l6 30h580z" />
    <glyph glyph-name="quoteleft" unicode="&#x2018;" horiz-adv-x="208" 
d="M138 547q0 36 27 73.5t62 56.5l18 -20q-27 -15 -47 -38t-25 -46h6q10 0 18 -8.5t8 -19.5q0 -15 -10.5 -25.5t-24.5 -10.5q-32 0 -32 38z" />
    <glyph glyph-name="quoteright" unicode="&#x2019;" horiz-adv-x="208" 
d="M227 639q0 -36 -27 -73.5t-62 -56.5l-18 20q27 15 47 38t25 46h-6q-10 0 -18 8.5t-8 19.5q0 15 10.5 25.5t24.5 10.5q32 0 32 -38z" />
    <glyph glyph-name="quotesinglbase" unicode="&#x201a;" horiz-adv-x="208" 
d="M89 18q0 -36 -27 -73.5t-62 -56.5l-18 20q27 15 47 38t25 46h-6q-10 0 -18 8.5t-8 19.5q0 15 10.5 25.5t24.5 10.5q32 0 32 -38z" />
    <glyph glyph-name="quotedblleft" unicode="&#x201c;" horiz-adv-x="331" 
d="M259 547q0 36 27 73.5t62 56.5l18 -20q-27 -15 -47 -38t-25 -46h6q10 0 18 -8.5t8 -19.5q0 -15 -10.5 -25.5t-24.5 -10.5q-32 0 -32 38zM138 547q0 36 27 73.5t62 56.5l18 -20q-27 -15 -47 -38t-25 -46h6q10 0 18 -8.5t8 -19.5q0 -15 -10.5 -25.5t-24.5 -10.5
q-32 0 -32 38z" />
    <glyph glyph-name="quotedblright" unicode="&#x201d;" horiz-adv-x="331" 
d="M227 639q0 -36 -27 -73.5t-62 -56.5l-18 20q27 15 47 38t25 46h-6q-10 0 -18 8.5t-8 19.5q0 15 10.5 25.5t24.5 10.5q32 0 32 -38zM348 639q0 -36 -27 -73.5t-62 -56.5l-18 20q27 15 47 38t25 46h-6q-10 0 -18 8.5t-8 19.5q0 15 10.5 25.5t24.5 10.5q32 0 32 -38z" />
    <glyph glyph-name="quotedblbase" unicode="&#x201e;" horiz-adv-x="331" 
d="M89 18q0 -36 -27 -73.5t-62 -56.5l-18 20q27 15 47 38t25 46h-6q-10 0 -18 8.5t-8 19.5q0 15 10.5 25.5t24.5 10.5q32 0 32 -38zM210 18q0 -36 -27 -73.5t-62 -56.5l-18 20q27 15 47 38t25 46h-6q-10 0 -18 8.5t-8 19.5q0 15 10.5 25.5t24.5 10.5q32 0 32 -38z" />
    <glyph glyph-name="dagger" unicode="&#x2020;" horiz-adv-x="251" 
d="M291 539l-88 4l-44 -216h-31l52 216l-90 -4l6 27l88 -3l22 114h31l-30 -114l90 3z" />
    <glyph glyph-name="daggerdbl" unicode="&#x2021;" horiz-adv-x="251" 
d="M297 566l-6 -27l-88 4l-51 -229l90 4l-6 -27l-88 3l-22 -114h-31l30 114l-90 -3l6 27l88 -4l51 229l-90 -4l6 27l88 -3l22 114h31l-30 -114z" />
    <glyph glyph-name="bullet" unicode="&#x2022;" horiz-adv-x="358" 
d="M278 252q0 -43 -33 -75t-77 -32q-38 0 -63 25.5t-25 62.5q0 43 33 75t77 32q38 0 63 -25t25 -63z" />
    <glyph glyph-name="ellipsis" unicode="&#x2026;" horiz-adv-x="624" 
d="M52 -9q-13 0 -21.5 8.5t-8.5 21.5q0 15 10.5 25t25.5 10q13 0 21.5 -8.5t8.5 -21.5q0 -15 -10.5 -25t-25.5 -10zM260 -9q-13 0 -21.5 8.5t-8.5 21.5q0 15 10.5 25t25.5 10q13 0 21.5 -8.5t8.5 -21.5q0 -15 -10.5 -25t-25.5 -10zM468 -9q-13 0 -21.5 8.5t-8.5 21.5
q0 15 10.5 25t25.5 10q13 0 21.5 -8.5t8.5 -21.5q0 -15 -10.5 -25t-25.5 -10z" />
    <glyph glyph-name="perthousand" unicode="&#x2030;" horiz-adv-x="670" 
d="M264 462q0 -64 -36 -117.5t-86 -53.5q-38 0 -59 26t-21 74q0 64 36 117.5t86 53.5q38 0 59 -26t21 -74zM429 550l-362 -550h-32l361 550h33zM233 465q0 72 -49 72q-36 0 -63 -45.5t-27 -103.5q0 -72 49 -72q36 0 63 45.5t27 103.5zM402 159q0 -64 -36 -117.5t-86 -53.5
q-38 0 -59 26t-21 74q0 64 36 117.5t86 53.5q38 0 59 -26t21 -74zM371 162q0 72 -49 72q-36 0 -63 -45.5t-27 -103.5q0 -72 49 -72q36 0 63 45.5t27 103.5zM621 159q0 -64 -35.5 -117.5t-86.5 -53.5q-38 0 -59 26t-21 74q0 64 35.5 117.5t86.5 53.5q38 0 59 -26t21 -74z
M590 162q0 72 -49 72q-36 0 -63 -45.5t-27 -103.5q0 -72 49 -72q36 0 63 45.5t27 103.5z" />
    <glyph glyph-name="guilsinglleft" unicode="&#x2039;" horiz-adv-x="183" 
d="M110 63h-31l-50 180l130 177h35l-133 -181z" />
    <glyph glyph-name="guilsinglright" unicode="&#x203a;" horiz-adv-x="183" 
d="M73 420h31l50 -180l-130 -177h-35l133 181z" />
    <glyph glyph-name="fraction" unicode="&#x2044;" horiz-adv-x="100" 
d="M294 667l-417 -667h-32l416 667h33z" />
    <glyph glyph-name="Euro" unicode="&#x20ac;" horiz-adv-x="326" 
d="M221 324h-122q-13 -49 -21 -99h121l-6 -30h-119q-3 -33 -3 -55q0 -123 69 -123q28 0 47 17.5t40 57.5l27 -14q-26 -46 -52 -68t-62 -22q-102 0 -102 152q0 24 3 55h-34l6 30h32q5 38 19 99h-29l7 30h30q26 91 68.5 149.5t100.5 58.5q37 0 62.5 -25t31.5 -66l-31 -9
q-11 71 -63 71q-43 0 -77 -50t-57 -129h121z" />
    <glyph glyph-name="trademark" unicode="&#x2122;" 
d="M384 447h-28l40 182l-95 -182h-8l-15 182l-40 -182h-28l48 220h43l10 -157l78 157h43zM217 641h-42l-43 -194h-28l43 194h-42l5 26h112z" />
    <glyph glyph-name="Omega" unicode="&#x2126;" horiz-adv-x="376" 
d="M-2 0l6 30h73q-33 64 -33 157q0 58 14.5 137.5t41 160.5t72 137t99.5 56q51 0 78 -37.5t27 -131.5q0 -141 -49.5 -275.5t-119.5 -203.5h69l-6 -30h-100l6 30q66 50 116 204.5t50 274.5q0 75 -16.5 106.5t-54.5 31.5q-45 0 -84 -55.5t-62.5 -134t-36.5 -155t-13 -128.5
q0 -98 29 -144l-6 -30h-100z" />
    <glyph glyph-name="partialdiff" unicode="&#x2202;" horiz-adv-x="352" 
d="M134 -12q-53 0 -77.5 36.5t-24.5 112.5q0 72 21 152.5t65.5 143t99.5 62.5q27 0 48 -17t28 -50q-1 49 -14.5 123t-31.5 116l33 11q43 -136 43 -273q0 -60 -11 -128t-32.5 -135t-60 -110.5t-86.5 -43.5zM134 15q35 0 66 40t49 97t28.5 113t10.5 95q0 42 -17 75t-53 33
q-47 0 -84.5 -67.5t-53.5 -142.5t-16 -127q0 -116 70 -116z" />
    <glyph glyph-name="Delta" unicode="&#x2206;" horiz-adv-x="312" 
d="M246 0h-288l272 667h38zM215 30l25 590l-237 -590h212z" />
    <glyph glyph-name="product" unicode="&#x220f;" horiz-adv-x="348" 
d="M200 -90h-32l161 727h-137l-161 -727h-32l161 727h-55l6 30h312l-6 -30h-56z" />
    <glyph glyph-name="summation" unicode="&#x2211;" horiz-adv-x="294" 
d="M166 637l44 -343l-196 -354h176l-6 -30h-210l6 31l198 358l-43 338l6 30h210l-6 -30h-179z" />
    <glyph glyph-name="minus" unicode="&#x2212;" 
d="M361 319h-316l7 30h316z" />
    <glyph glyph-name="radical" unicode="&#x221a;" horiz-adv-x="464" 
d="M235 0h-35l-3 331l-134 -28v29l161 34v-331l286 632h29z" />
    <glyph glyph-name="infinity" unicode="&#x221e;" horiz-adv-x="467" 
d="M124 180q-38 0 -59.5 30t-21.5 76q0 79 39 141.5t95 62.5q35 0 57 -33t27 -82q22 50 54.5 82.5t67.5 32.5q38 0 59 -29.5t21 -76.5q0 -79 -38.5 -141.5t-94.5 -62.5q-35 0 -58 33.5t-28 81.5q-23 -51 -54 -83t-66 -32zM330 211q46 0 73.5 56t27.5 115q0 37 -15 57.5
t-38 20.5q-28 0 -54.5 -35t-55.5 -92q10 -122 62 -122zM129 211q16 0 31.5 10.5t30.5 32.5t24 38t24 45q-5 59 -19 91t-43 32q-46 0 -74 -56t-28 -115q0 -37 15.5 -57.5t38.5 -20.5z" />
    <glyph glyph-name="integral" unicode="&#x222b;" horiz-adv-x="226" 
d="M-28 -100h-31l6 30h32q49 0 63 63l151 682q20 93 100 93h32l-7 -30h-32q-50 0 -63 -63l-151 -682q-20 -93 -100 -93z" />
    <glyph glyph-name="approxequal" unicode="&#x2248;" 
d="M23 220l8 33q30 -18 75 -18q34 0 79 16t85 16q43 0 76 -15l-7 -33q-30 18 -76 18q-33 0 -78.5 -16t-85.5 -16q-43 0 -76 15zM67 416l7 33q30 -18 75 -18q33 0 79 16t85 16q44 0 77 -15l-7 -33q-31 18 -77 18q-34 0 -79 -16t-85 -16q-42 0 -75 15z" />
    <glyph glyph-name="notequal" unicode="&#x2260;" 
d="M72 93h-34l79 127h-94l7 30h106l106 168h-175l7 30h187l79 126h35l-80 -126h95l-7 -30h-107l-105 -168h175l-7 -30h-187z" />
    <glyph glyph-name="lessequal" unicode="&#x2264;" 
d="M327 166l-281 158l5 21l351 158l-9 -38l-304 -133l245 -132zM304 60h-316l6 30h316z" />
    <glyph glyph-name="greaterequal" unicode="&#x2265;" 
d="M362 324l-351 -158l9 38l305 132l-246 133l7 34l281 -158zM304 60h-316l6 30h316z" />
    <glyph glyph-name="lozenge" unicode="&#x25ca;" horiz-adv-x="375" 
d="M144 0h-21l-84 334l231 333h21l85 -333zM142 45l197 293l-67 284l-196 -292z" />
    <glyph glyph-name="apple" unicode="&#xf8ff;" horiz-adv-x="667" 
d="M213 153l18 82h-90q-37 0 -63.5 -27.5t-26.5 -65.5q0 -30 19.5 -50t49.5 -20q37 0 61 21.5t32 59.5zM274 432l16 72q2 8 2 22q0 32 -19.5 50.5t-52.5 18.5q-37 0 -63.5 -26t-26.5 -63q0 -34 20.5 -54t54.5 -20h69zM269 265h137l31 137h-137zM576 161q0 34 -20.5 54
t-54.5 20h-69l-16 -72q-2 -12 -2 -22q0 -32 19.5 -50.5t52.5 -18.5q37 0 63.5 26t26.5 63zM655 525q0 30 -19.5 50t-49.5 20q-75 0 -93 -81l-18 -82h90q37 0 63.5 27.5t26.5 65.5zM607 160q0 -48 -39 -83t-89 -35q-42 0 -70 28t-28 70q0 14 3 29l16 66h-137l-21 -90
q-11 -46 -45 -74.5t-80 -28.5q-41 0 -70 28t-29 69q0 49 38 87.5t87 38.5h94l31 137h-69q-45 0 -72.5 29.5t-27.5 75.5q0 48 38.5 83t88.5 35q42 0 70 -28t28 -70q0 -14 -3 -29l-15 -66h137l20 90q11 46 45 74.5t80 28.5q42 0 71 -28t29 -69q0 -50 -38 -88t-87 -38h-94
l-31 -137h66q46 0 74.5 -29.5t28.5 -75.5z" />
    </font>
</defs>
</svg>
